<svg width="266" height="248" viewBox="0 0 266 248" fill="none" xmlns="http://www.w3.org/2000/svg">
<path d="M132.83 88.0049C146.546 87.9618 160.595 95.3863 166.354 110.342C172.279 125.726 177.954 138.507 182.377 144.873L183.123 145.955C184.809 148.422 186.109 150.491 186.922 152.152C187.382 153.094 187.763 154.055 187.917 154.977C188.07 155.891 188.057 157.148 187.223 158.235C186.396 159.311 185.197 159.655 184.288 159.759C183.363 159.864 182.334 159.773 181.294 159.599C179.46 159.291 177.099 158.637 174.249 157.735L172.998 157.334C165.968 155.05 159.212 154.534 152.879 156.245C146.564 157.952 140.435 161.937 134.744 169.061C121.436 185.719 105.246 199.329 88.8213 210.298C82.3227 214.638 75.9995 216.256 70.4277 215.607C64.8396 214.957 60.2272 212.044 57.2236 207.763C51.2016 199.178 51.8936 185.676 62.252 174.012C75.78 158.778 86.3529 146.771 87.8701 144.783C87.865 144.79 87.9093 144.73 88.0049 144.56C88.0948 144.399 88.2066 144.183 88.3408 143.903C88.6096 143.344 88.937 142.596 89.3213 141.664C90.0886 139.802 91.0442 137.292 92.1523 134.245C94.3669 128.157 97.1607 120.016 100.229 110.835C105.326 95.5812 119.102 88.0481 132.83 88.0049Z" stroke="#DCAC42" stroke-width="5"/>
<path d="M120.218 36.0922C122.951 46.2917 123.172 56.2577 121.201 64.1695C119.254 71.9856 114.971 78.3914 108.225 80.1991C101.478 82.0068 94.5668 78.6004 88.9724 72.805C83.3096 66.9387 78.518 58.1973 75.7851 47.9979C73.0522 37.7984 72.8311 27.8324 74.802 19.9206C76.7493 12.1045 81.0316 5.69869 87.778 3.89098C94.5245 2.08326 101.436 5.48972 107.03 11.285C112.693 17.1513 117.485 25.8927 120.218 36.0922Z" stroke="#DCAC42" stroke-width="5"/>
<path d="M67.9942 89.384C72.2521 96.7589 74.5178 104.497 74.6347 111.118C74.7498 117.641 72.7446 123.708 67.6762 126.634C62.608 129.56 56.3522 128.263 50.7606 124.902C45.0846 121.49 39.5165 115.659 35.2586 108.284C31.0008 100.909 28.7354 93.1721 28.6185 86.5506C28.5034 80.0276 30.5081 73.9614 35.5761 71.0351C40.6445 68.1089 46.9009 69.4056 52.4926 72.7669C58.1685 76.1789 63.7363 82.0093 67.9942 89.384Z" stroke="#DCAC42" stroke-width="5"/>
<path d="M204.259 89.3845C208.517 82.0096 214.085 76.1786 219.761 72.7666C225.352 69.4053 231.609 68.1086 236.677 71.0348C241.745 73.9611 243.75 80.0273 243.635 86.5503C243.518 93.1719 241.252 100.91 236.994 108.284C232.736 115.659 227.169 121.49 221.493 124.902C215.901 128.263 209.645 129.56 204.577 126.634C199.509 123.708 197.504 117.641 197.619 111.118C197.736 104.496 200.001 96.7593 204.259 89.3845Z" stroke="#DCAC42" stroke-width="5"/>
<path d="M150.786 36.0922C153.518 25.8927 158.31 17.1513 163.973 11.285C169.567 5.48972 176.479 2.08326 183.225 3.89098C189.972 5.69869 194.254 12.1045 196.201 19.9206C198.172 27.8324 197.951 37.7984 195.218 47.9979C192.485 58.1974 187.694 66.9388 182.031 72.805C176.436 78.6004 169.525 82.0068 162.778 80.1991C156.032 78.3914 151.75 71.9856 149.802 64.1695C147.831 56.2577 148.053 46.2917 150.786 36.0922Z" stroke="#DCAC42" stroke-width="5"/>
</svg>
