<svg width="266" height="248" viewBox="0 0 266 248" fill="none" xmlns="http://www.w3.org/2000/svg">
<path d="M133.206 88.0049C146.922 87.9618 160.971 95.3863 166.73 110.342C172.655 125.726 178.33 138.507 182.753 144.873L183.499 145.955C185.185 148.422 186.485 150.491 187.298 152.152C187.758 153.094 188.139 154.055 188.293 154.977C188.446 155.891 188.433 157.148 187.599 158.235C186.772 159.311 185.573 159.655 184.664 159.759C183.739 159.864 182.71 159.773 181.67 159.599C179.836 159.291 177.475 158.637 174.625 157.735L173.374 157.334C166.344 155.05 159.588 154.534 153.255 156.245C146.94 157.952 140.811 161.937 135.12 169.061C121.812 185.719 105.622 199.329 89.1973 210.298C82.6987 214.638 76.3755 216.256 70.8037 215.607C65.2156 214.957 60.6032 212.044 57.5996 207.763C51.5776 199.178 52.2696 185.676 62.6279 174.012C76.156 158.778 86.7288 146.771 88.2461 144.783C88.241 144.79 88.2853 144.73 88.3809 144.56C88.4707 144.399 88.5826 144.183 88.7168 143.903C88.9856 143.344 89.313 142.596 89.6973 141.664C90.4646 139.802 91.4202 137.292 92.5283 134.245C94.7429 128.157 97.5366 120.016 100.604 110.835C105.702 95.5812 119.478 88.0481 133.206 88.0049Z" stroke="#E60076" stroke-width="5"/>
<path d="M120.594 36.0922C123.327 46.2917 123.548 56.2577 121.577 64.1695C119.629 71.9856 115.347 78.3914 108.601 80.1991C101.854 82.0068 94.9428 78.6004 89.3484 72.805C83.6856 66.9387 78.894 58.1973 76.1611 47.9979C73.4281 37.7984 73.207 27.8324 75.178 19.9206C77.1252 12.1045 81.4075 5.69869 88.154 3.89098C94.9005 2.08326 101.812 5.48972 107.406 11.285C113.069 17.1513 117.861 25.8927 120.594 36.0922Z" stroke="#E60076" stroke-width="5"/>
<path d="M68.3701 89.384C72.628 96.7589 74.8938 104.497 75.0107 111.118C75.1258 117.641 73.1205 123.708 68.0522 126.634C62.984 129.56 56.7281 128.263 51.1366 124.902C45.4606 121.49 39.8925 115.659 35.6346 108.284C31.3768 100.909 29.1114 93.1721 28.9945 86.5506C28.8794 80.0276 30.8841 73.9614 35.9521 71.0351C41.0204 68.1089 47.2769 69.4056 52.8686 72.7669C58.5445 76.1789 64.1123 82.0093 68.3701 89.384Z" stroke="#E60076" stroke-width="5"/>
<path d="M204.635 89.3845C208.893 82.0096 214.461 76.1786 220.137 72.7666C225.728 69.4053 231.985 68.1086 237.053 71.0348C242.121 73.9611 244.126 80.0273 244.011 86.5503C243.894 93.1719 241.628 100.91 237.37 108.284C233.112 115.659 227.545 121.49 221.869 124.902C216.277 128.263 210.021 129.56 204.953 126.634C199.885 123.708 197.88 117.641 197.995 111.118C198.112 104.496 200.377 96.7593 204.635 89.3845Z" stroke="#E60076" stroke-width="5"/>
<path d="M151.161 36.0922C153.894 25.8927 158.686 17.1513 164.349 11.285C169.943 5.48972 176.855 2.08326 183.601 3.89098C190.348 5.69869 194.63 12.1045 196.577 19.9206C198.548 27.8324 198.327 37.7984 195.594 47.9979C192.861 58.1974 188.07 66.9388 182.407 72.805C176.812 78.6004 169.901 82.0068 163.154 80.1991C156.408 78.3914 152.126 71.9856 150.178 64.1695C148.207 56.2577 148.429 46.2917 151.161 36.0922Z" stroke="#E60076" stroke-width="5"/>
</svg>
