<svg width="546" height="296" viewBox="0 0 546 296" fill="none" xmlns="http://www.w3.org/2000/svg">
<path d="M133.206 88.0049C146.922 87.9618 160.971 95.3863 166.73 110.342C172.655 125.726 178.33 138.507 182.753 144.873L183.499 145.955C185.185 148.422 186.485 150.491 187.298 152.152C187.758 153.094 188.139 154.055 188.293 154.977C188.446 155.891 188.433 157.148 187.599 158.235C186.772 159.311 185.573 159.655 184.664 159.759C183.739 159.864 182.71 159.773 181.67 159.599C179.836 159.291 177.475 158.637 174.625 157.735L173.374 157.334C166.344 155.05 159.588 154.534 153.255 156.245C146.94 157.952 140.811 161.937 135.12 169.061C121.812 185.719 105.622 199.329 89.1973 210.298C82.6987 214.638 76.3755 216.256 70.8037 215.607C65.2156 214.957 60.6032 212.044 57.5996 207.763C51.5776 199.178 52.2696 185.676 62.6279 174.012C76.156 158.778 86.7288 146.771 88.2461 144.783C88.241 144.79 88.2853 144.73 88.3809 144.56C88.4707 144.399 88.5826 144.183 88.7168 143.903C88.9856 143.344 89.313 142.596 89.6973 141.664C90.4646 139.802 91.4202 137.292 92.5283 134.245C94.7429 128.157 97.5366 120.016 100.604 110.835C105.702 95.5812 119.478 88.0481 133.206 88.0049Z" stroke="#E60076" stroke-width="5"/>
<path d="M120.594 36.0922C123.327 46.2917 123.548 56.2577 121.577 64.1695C119.629 71.9856 115.347 78.3914 108.601 80.1991C101.854 82.0068 94.9428 78.6004 89.3484 72.805C83.6856 66.9387 78.894 58.1973 76.1611 47.9979C73.4281 37.7984 73.207 27.8324 75.178 19.9206C77.1252 12.1045 81.4075 5.69869 88.154 3.89098C94.9005 2.08326 101.812 5.48972 107.406 11.285C113.069 17.1513 117.861 25.8927 120.594 36.0922Z" stroke="#E60076" stroke-width="5"/>
<path d="M68.3701 89.384C72.628 96.7589 74.8938 104.497 75.0107 111.118C75.1258 117.641 73.1205 123.708 68.0522 126.634C62.984 129.56 56.7281 128.263 51.1366 124.902C45.4606 121.49 39.8925 115.659 35.6346 108.284C31.3768 100.909 29.1114 93.1721 28.9945 86.5506C28.8794 80.0276 30.8841 73.9614 35.9521 71.0351C41.0204 68.1089 47.2769 69.4056 52.8686 72.7669C58.5445 76.1789 64.1123 82.0093 68.3701 89.384Z" stroke="#E60076" stroke-width="5"/>
<path d="M204.635 89.3845C208.893 82.0096 214.461 76.1786 220.137 72.7666C225.728 69.4053 231.985 68.1086 237.053 71.0348C242.121 73.9611 244.126 80.0273 244.011 86.5503C243.894 93.1719 241.628 100.91 237.37 108.284C233.112 115.659 227.545 121.49 221.869 124.902C216.277 128.263 210.021 129.56 204.953 126.634C199.885 123.708 197.88 117.641 197.995 111.118C198.112 104.496 200.377 96.7593 204.635 89.3845Z" stroke="#E60076" stroke-width="5"/>
<path d="M151.161 36.0922C153.894 25.8927 158.686 17.1513 164.349 11.285C169.943 5.48972 176.855 2.08326 183.601 3.89098C190.348 5.69869 194.63 12.1045 196.577 19.9206C198.548 27.8324 198.327 37.7984 195.594 47.9979C192.861 58.1974 188.07 66.9388 182.407 72.805C176.812 78.6004 169.901 82.0068 163.154 80.1991C156.408 78.3914 152.126 71.9856 150.178 64.1695C148.207 56.2577 148.429 46.2917 151.161 36.0922Z" stroke="#E60076" stroke-width="5"/>
<path d="M178.272 233.976H166.848L163.104 255H145.824L158.016 185.88H187.296C194.528 185.88 199.68 187.544 202.752 190.872C204.992 193.432 206.112 196.696 206.112 200.664C206.112 202.008 205.984 203.416 205.728 204.888L203.808 215.736C202.848 221.048 200.032 225.432 195.36 228.888C190.688 232.28 184.992 233.976 178.272 233.976ZM181.248 200.856H172.608L169.44 219H177.984C183.232 219 186.272 216.664 187.104 211.992L187.776 208.056C187.904 207.48 187.968 206.712 187.968 205.752C187.968 204.792 187.488 203.736 186.528 202.584C185.568 201.432 183.808 200.856 181.248 200.856ZM251.886 240.216C251.886 241.88 252.718 242.712 254.382 242.712C256.11 242.712 257.55 242.392 258.702 241.752L258.222 252.6C255.15 255.096 251.694 256.344 247.854 256.344C240.814 256.344 236.91 253.784 236.142 248.664C232.942 253.784 228.238 256.344 222.03 256.344C211.534 256.344 206.286 251.832 206.286 242.808C206.286 241.272 206.446 239.576 206.766 237.72L208.782 226.488C209.806 220.728 212.142 216.152 215.79 212.76C219.502 209.304 224.302 207.576 230.19 207.576C236.142 207.576 240.174 208.952 242.286 211.704L242.766 208.824H257.358L251.982 239.064C251.918 239.448 251.886 239.832 251.886 240.216ZM223.47 235.608C223.342 236.184 223.278 236.984 223.278 238.008C223.278 239.032 223.758 240.056 224.718 241.08C225.678 242.04 227.278 242.52 229.518 242.52C231.822 242.52 233.806 241.624 235.47 239.832L238.35 223.704C237.646 222.104 235.982 221.304 233.358 221.304C228.43 221.304 225.55 223.672 224.718 228.408L223.47 235.608ZM343.044 208.824C343.94 211.512 344.388 215.096 344.388 219.576C344.388 223.992 343.844 228.248 342.756 232.344C341.668 236.44 340.004 240.344 337.764 244.056C335.588 247.704 332.516 250.68 328.548 252.984C324.644 255.224 320.132 256.344 315.012 256.344C307.332 256.344 302.212 254.2 299.652 249.912C295.044 254.2 289.892 256.344 284.196 256.344C276.516 256.344 271.236 254.712 268.356 251.448C266.436 249.272 265.476 246.04 265.476 241.752C265.476 239.512 265.732 237.016 266.244 234.264L270.756 208.824H287.076L282.564 234.36C282.372 235.32 282.276 236.184 282.276 236.952C282.276 240.6 284.164 242.424 287.94 242.424C290.564 242.424 292.548 241.304 293.892 239.064C295.236 236.76 296.388 232.76 297.348 227.064L300.612 208.824H316.932L312.42 234.36C312.228 235.32 312.132 236.184 312.132 236.952C312.132 240.6 314.02 242.424 317.796 242.424C324.452 242.424 327.78 235.448 327.78 221.496C327.78 218.232 327.524 214.616 327.012 210.648L326.724 208.824H343.044ZM375.709 238.2L393.949 185.88H412.669L386.461 255H355.741L354.973 185.88H373.789L373.501 238.2H375.709ZM430.087 242.712C431.559 242.712 432.871 242.392 434.023 241.752L433.543 252.6C430.535 255.096 427.111 256.344 423.271 256.344C417.447 256.344 413.671 255 411.943 252.312C410.791 250.52 410.215 248.632 410.215 246.648C410.215 244.6 410.343 242.808 410.599 241.272L416.359 208.824H432.679L427.303 239.064C427.239 239.448 427.207 239.8 427.207 240.12C427.207 241.848 428.167 242.712 430.087 242.712ZM418.279 193.176C418.279 189.08 419.175 186.104 420.967 184.248C422.823 182.328 425.671 181.368 429.511 181.368C434.887 181.368 437.575 183.736 437.575 188.472C437.575 192.504 436.647 195.448 434.791 197.304C432.999 199.16 430.151 200.088 426.247 200.088C420.935 200.088 418.279 197.784 418.279 193.176ZM472.853 207.48C479.189 207.48 483.637 209.24 486.197 212.76C488.117 215.256 489.077 218.296 489.077 221.88C489.077 223.352 488.917 224.888 488.597 226.488L486.677 237.24C485.589 243.384 482.741 248.12 478.133 251.448C473.589 254.712 467.829 256.344 460.853 256.344C453.941 256.344 448.628 254.968 444.917 252.216C441.973 250.04 440.501 247 440.501 243.096C440.501 242.072 440.597 241.016 440.789 239.928L450.965 182.136H467.285L462.389 210.072C465.077 208.344 468.565 207.48 472.853 207.48ZM471.989 227.928C472.053 227.416 472.085 226.712 472.085 225.816C472.085 224.856 471.669 223.864 470.837 222.84C470.069 221.752 468.341 221.208 465.653 221.208C463.029 221.208 461.141 222.008 459.989 223.608L457.205 239.64C457.973 241.56 459.573 242.52 462.005 242.52C466.933 242.52 469.845 240.056 470.741 235.128L471.989 227.928ZM514.067 256.344C500.755 256.344 494.099 251.736 494.099 242.52C494.099 241.24 494.227 239.864 494.483 238.392L496.499 226.488C497.587 220.344 500.403 215.64 504.947 212.376C509.555 209.048 515.635 207.384 523.187 207.384C536.051 207.384 542.483 212.248 542.483 221.976C542.483 223.384 542.355 224.92 542.099 226.584L540.947 233.4H511.667L511.283 235.608C511.155 236.376 511.091 237.08 511.091 237.72C511.091 241.24 513.171 243 517.331 243C518.867 243 520.179 242.52 521.267 241.56C522.355 240.6 522.995 239.48 523.187 238.2L539.123 238.392C537.011 250.36 528.659 256.344 514.067 256.344ZM525.587 227.544C525.843 226.456 525.971 225.464 525.971 224.568C525.971 223.608 525.555 222.648 524.723 221.688C523.891 220.728 522.547 220.248 520.691 220.248C518.899 220.248 517.235 220.856 515.699 222.072C514.227 223.288 513.203 225.112 512.627 227.544H525.587Z" fill="#E60076"/>
</svg>
